# xmcd
#
# Track frame offsets: 
#        150
#        17456
#        37846
#        53291
#        78794
#        101325
#        117842
#        139618
#        157518
#        174004
#        190624
#        206207
#        239149
#
# Disc length: 3372 seconds
#
# Revision: 0
# Processed by: cddbd v1.5.2PL0 Copyright (c) Steve Scherf et al.
# Submitted via: ExactAudioCopy v0.99pb3
#
DISCID=880d2a0d
DTITLE=Ruff Kutt Blues Band - Mill Block Blues
DYEAR=2011
DGENRE=Blues
TTITLE0=Cut Like A Knife
TTITLE1=Living Without You
TTITLE2=Drown On Dry Land
TTITLE3=Now You See Me
TTITLE4=Stone Cold Woman
TTITLE5=This Is The Place
TTITLE6=The Fowler Street Stumble
TTITLE7=She's Gone
TTITLE8=Mill Block Blues
TTITLE9=Rock When You Need To
TTITLE10=Oh Lord
TTITLE11=Daddy Sang The Blues
TTITLE12=I'm On My Own
EXTD=
EXTT0=
EXTT1=
EXTT2=
EXTT3=
EXTT4=
EXTT5=
EXTT6=
EXTT7=
EXTT8=
EXTT9=
EXTT10=
EXTT11=
EXTT12=
PLAYORDER=
